{
    "asset" : {
        "generator" : "Khronos glTF Blender I/O v1.0.5",
        "version" : "2.0"
    },
    "scene" : 0,
    "scenes" : [
        {
            "name" : "Scene",
            "nodes" : [
                9
            ]
        }
    ],
    "nodes" : [
        {
            "mesh" : 0,
            "name" : "Hinge_1_Left",
            "translation" : [
                0.06508687138557434,
                0.002187708392739296,
                -0.015591229312121868
            ]
        },
        {
            "mesh" : 1,
            "name" : "Hinge_1_Right",
            "translation" : [
                -0.06508688628673553,
                0.002187708392739296,
                -0.01559122558683157
            ]
        },
        {
            "mesh" : 2,
            "name" : "Pinhole_Lens",
            "translation" : [
                0,
                -0.001638907939195633,
                0.006561005022376776
            ]
        },
        {
            "mesh" : 3,
            "name" : "Hinge_2_Left"
        },
        {
            "mesh" : 4,
            "name" : "Screw_Left",
            "translation" : [
                0,
                0.0017035219352692366,
                0
            ]
        },
        {
            "children" : [
                3,
                4
            ],
            "mesh" : 5,
            "name" : "Temple_L",
            "translation" : [
                0.06508687138557434,
                0.0021877079270780087,
                -0.015591229312121868
            ]
        },
        {
            "mesh" : 6,
            "name" : "Hinge_2_Right"
        },
        {
            "mesh" : 7,
            "name" : "Screw_Right"
        },
        {
            "children" : [
                6,
                7
            ],
            "mesh" : 8,
            "name" : "Temple_R",
            "translation" : [
                -0.06508689373731613,
                0.0021877079270780087,
                -0.01559122558683157
            ]
        },
        {
            "children" : [
                0,
                1,
                2,
                5,
                8
            ],
            "mesh" : 9,
            "name" : "Frame"
        }
    ],
    "materials" : [
        {
            "doubleSided" : true,
            "name" : "Gloss Black",
            "pbrMetallicRoughness" : {}
        },
        {
            "doubleSided" : true,
            "name" : "Matte Black",
            "pbrMetallicRoughness" : {}
        },
        {
            "doubleSided" : true,
            "name" : "Metal",
            "pbrMetallicRoughness" : {}
        }
    ],
    "meshes" : [
        {
            "name" : "Cube.002",
            "primitives" : [
                {
                    "attributes" : {
                        "POSITION" : 0,
                        "NORMAL" : 1
                    },
                    "indices" : 2,
                    "material" : 0
                }
            ]
        },
        {
            "name" : "Cube.013",
            "primitives" : [
                {
                    "attributes" : {
                        "POSITION" : 3,
                        "NORMAL" : 4
                    },
                    "indices" : 5,
                    "material" : 0
                }
            ]
        },
        {
            "name" : "Plane.011",
            "primitives" : [
                {
                    "attributes" : {
                        "POSITION" : 6,
                        "NORMAL" : 7,
                        "COLOR_0" : 8
                    },
                    "indices" : 9,
                    "material" : 1
                }
            ]
        },
        {
            "name" : "Cube.001",
            "primitives" : [
                {
                    "attributes" : {
                        "POSITION" : 10,
                        "NORMAL" : 11
                    },
                    "indices" : 12,
                    "material" : 0
                }
            ]
        },
        {
            "name" : "Cube.007",
            "primitives" : [
                {
                    "attributes" : {
                        "POSITION" : 13,
                        "NORMAL" : 14
                    },
                    "indices" : 15,
                    "material" : 2
                }
            ]
        },
        {
            "name" : "Plane.016",
            "primitives" : [
                {
                    "attributes" : {
                        "POSITION" : 16,
                        "NORMAL" : 17,
                        "COLOR_0" : 18
                    },
                    "indices" : 19,
                    "material" : 0
                }
            ]
        },
        {
            "name" : "Cube.012",
            "primitives" : [
                {
                    "attributes" : {
                        "POSITION" : 20,
                        "NORMAL" : 21
                    },
                    "indices" : 22,
                    "material" : 0
                }
            ]
        },
        {
            "name" : "Cube.011",
            "primitives" : [
                {
                    "attributes" : {
                        "POSITION" : 23,
                        "NORMAL" : 24
                    },
                    "indices" : 25,
                    "material" : 2
                }
            ]
        },
        {
            "name" : "Plane.017",
            "primitives" : [
                {
                    "attributes" : {
                        "POSITION" : 26,
                        "NORMAL" : 27,
                        "COLOR_0" : 28
                    },
                    "indices" : 29,
                    "material" : 0
                }
            ]
        },
        {
            "name" : "Plane.001",
            "primitives" : [
                {
                    "attributes" : {
                        "POSITION" : 30,
                        "NORMAL" : 31,
                        "COLOR_0" : 32
                    },
                    "indices" : 33,
                    "material" : 0
                }
            ]
        }
    ],
    "accessors" : [
        {
            "bufferView" : 0,
            "componentType" : 5126,
            "count" : 147,
            "max" : [
                0.0011658763978630304,
                0.0019102883525192738,
                0.0054824878461658955
            ],
            "min" : [
                -0.0014261407777667046,
                -0.0020897123031318188,
                -0.0013363186735659838
            ],
            "type" : "VEC3"
        },
        {
            "bufferView" : 1,
            "componentType" : 5126,
            "count" : 147,
            "type" : "VEC3"
        },
        {
            "bufferView" : 2,
            "componentType" : 5123,
            "count" : 882,
            "type" : "SCALAR"
        },
        {
            "bufferView" : 3,
            "componentType" : 5126,
            "count" : 147,
            "max" : [
                0.0014261649921536446,
                0.0019484941149130464,
                0.005482485052198172
            ],
            "min" : [
                -0.0011658500880002975,
                -0.0021315065678209066,
                -0.001336321816779673
            ],
            "type" : "VEC3"
        },
        {
            "bufferView" : 4,
            "componentType" : 5126,
            "count" : 147,
            "type" : "VEC3"
        },
        {
            "bufferView" : 5,
            "componentType" : 5123,
            "count" : 882,
            "type" : "SCALAR"
        },
        {
            "bufferView" : 6,
            "componentType" : 5126,
            "count" : 6618,
            "max" : [
                0.06426356732845306,
                0.01712087169289589,
                0.005838591605424881
            ],
            "min" : [
                -0.06426356732845306,
                -0.017884835600852966,
                -0.015301483683288097
            ],
            "type" : "VEC3"
        },
        {
            "bufferView" : 7,
            "componentType" : 5126,
            "count" : 6618,
            "type" : "VEC3"
        },
        {
            "bufferView" : 8,
            "componentType" : 5126,
            "count" : 6618,
            "type" : "VEC4"
        },
        {
            "bufferView" : 9,
            "componentType" : 5123,
            "count" : 41952,
            "type" : "SCALAR"
        },
        {
            "bufferView" : 10,
            "componentType" : 5126,
            "count" : 152,
            "max" : [
                0.0013943136436864734,
                0.001910288818180561,
                0.0013250651536509395
            ],
            "min" : [
                -0.001152155571617186,
                -0.0020897123031318188,
                -0.0060609979555010796
            ],
            "type" : "VEC3"
        },
        {
            "bufferView" : 11,
            "componentType" : 5126,
            "count" : 152,
            "type" : "VEC3"
        },
        {
            "bufferView" : 12,
            "componentType" : 5123,
            "count" : 924,
            "type" : "SCALAR"
        },
        {
            "bufferView" : 13,
            "componentType" : 5126,
            "count" : 157,
            "max" : [
                0.000875346246175468,
                0.0005875345086678863,
                0.0010049393167719245
            ],
            "min" : [
                -0.0008753456058911979,
                -0.0038077295757830143,
                -0.0010165669955313206
            ],
            "type" : "VEC3"
        },
        {
            "bufferView" : 14,
            "componentType" : 5126,
            "count" : 157,
            "type" : "VEC3"
        },
        {
            "bufferView" : 15,
            "componentType" : 5123,
            "count" : 738,
            "type" : "SCALAR"
        },
        {
            "bufferView" : 16,
            "componentType" : 5126,
            "count" : 182,
            "max" : [
                0.004135645925998688,
                0.010484473779797554,
                1.0317832675355021e-05
            ],
            "min" : [
                -0.029050495475530624,
                -0.01779371127486229,
                -0.11570663750171661
            ],
            "type" : "VEC3"
        },
        {
            "bufferView" : 17,
            "componentType" : 5126,
            "count" : 182,
            "type" : "VEC3"
        },
        {
            "bufferView" : 18,
            "componentType" : 5126,
            "count" : 182,
            "type" : "VEC4"
        },
        {
            "bufferView" : 19,
            "componentType" : 5123,
            "count" : 972,
            "type" : "SCALAR"
        },
        {
            "bufferView" : 20,
            "componentType" : 5126,
            "count" : 152,
            "max" : [
                0.0011522022541612387,
                0.001910288818180561,
                0.0013250620104372501
            ],
            "min" : [
                -0.0013942706864327192,
                -0.0020897123031318188,
                -0.006061000749468803
            ],
            "type" : "VEC3"
        },
        {
            "bufferView" : 21,
            "componentType" : 5126,
            "count" : 152,
            "type" : "VEC3"
        },
        {
            "bufferView" : 22,
            "componentType" : 5123,
            "count" : 924,
            "type" : "SCALAR"
        },
        {
            "bufferView" : 23,
            "componentType" : 5126,
            "count" : 157,
            "max" : [
                0.0008753836154937744,
                0.0022910558618605137,
                0.001004935591481626
            ],
            "min" : [
                -0.0008752942085266113,
                -0.0021042083390057087,
                -0.001016570720821619
            ],
            "type" : "VEC3"
        },
        {
            "bufferView" : 24,
            "componentType" : 5126,
            "count" : 157,
            "type" : "VEC3"
        },
        {
            "bufferView" : 25,
            "componentType" : 5123,
            "count" : 855,
            "type" : "SCALAR"
        },
        {
            "bufferView" : 26,
            "componentType" : 5126,
            "count" : 182,
            "max" : [
                0.02905053272843361,
                0.010484473779797554,
                1.0314107385056559e-05
            ],
            "min" : [
                -0.004135608673095703,
                -0.01779371127486229,
                -0.11570664495229721
            ],
            "type" : "VEC3"
        },
        {
            "bufferView" : 27,
            "componentType" : 5126,
            "count" : 182,
            "type" : "VEC3"
        },
        {
            "bufferView" : 28,
            "componentType" : 5126,
            "count" : 182,
            "type" : "VEC4"
        },
        {
            "bufferView" : 29,
            "componentType" : 5123,
            "count" : 972,
            "type" : "SCALAR"
        },
        {
            "bufferView" : 30,
            "componentType" : 5126,
            "count" : 1102,
            "max" : [
                0.06923124939203262,
                0.01936439238488674,
                0.01248273253440857
            ],
            "min" : [
                -0.06923123449087143,
                -0.021726304665207863,
                -0.015397320501506329
            ],
            "type" : "VEC3"
        },
        {
            "bufferView" : 31,
            "componentType" : 5126,
            "count" : 1102,
            "type" : "VEC3"
        },
        {
            "bufferView" : 32,
            "componentType" : 5126,
            "count" : 1102,
            "type" : "VEC4"
        },
        {
            "bufferView" : 33,
            "componentType" : 5123,
            "count" : 3684,
            "type" : "SCALAR"
        }
    ],
    "bufferViews" : [
        {
            "buffer" : 0,
            "byteLength" : 1764,
            "byteOffset" : 0
        },
        {
            "buffer" : 0,
            "byteLength" : 1764,
            "byteOffset" : 1764
        },
        {
            "buffer" : 0,
            "byteLength" : 1764,
            "byteOffset" : 3528
        },
        {
            "buffer" : 0,
            "byteLength" : 1764,
            "byteOffset" : 5292
        },
        {
            "buffer" : 0,
            "byteLength" : 1764,
            "byteOffset" : 7056
        },
        {
            "buffer" : 0,
            "byteLength" : 1764,
            "byteOffset" : 8820
        },
        {
            "buffer" : 0,
            "byteLength" : 79416,
            "byteOffset" : 10584
        },
        {
            "buffer" : 0,
            "byteLength" : 79416,
            "byteOffset" : 90000
        },
        {
            "buffer" : 0,
            "byteLength" : 105888,
            "byteOffset" : 169416
        },
        {
            "buffer" : 0,
            "byteLength" : 83904,
            "byteOffset" : 275304
        },
        {
            "buffer" : 0,
            "byteLength" : 1824,
            "byteOffset" : 359208
        },
        {
            "buffer" : 0,
            "byteLength" : 1824,
            "byteOffset" : 361032
        },
        {
            "buffer" : 0,
            "byteLength" : 1848,
            "byteOffset" : 362856
        },
        {
            "buffer" : 0,
            "byteLength" : 1884,
            "byteOffset" : 364704
        },
        {
            "buffer" : 0,
            "byteLength" : 1884,
            "byteOffset" : 366588
        },
        {
            "buffer" : 0,
            "byteLength" : 1476,
            "byteOffset" : 368472
        },
        {
            "buffer" : 0,
            "byteLength" : 2184,
            "byteOffset" : 369948
        },
        {
            "buffer" : 0,
            "byteLength" : 2184,
            "byteOffset" : 372132
        },
        {
            "buffer" : 0,
            "byteLength" : 2912,
            "byteOffset" : 374316
        },
        {
            "buffer" : 0,
            "byteLength" : 1944,
            "byteOffset" : 377228
        },
        {
            "buffer" : 0,
            "byteLength" : 1824,
            "byteOffset" : 379172
        },
        {
            "buffer" : 0,
            "byteLength" : 1824,
            "byteOffset" : 380996
        },
        {
            "buffer" : 0,
            "byteLength" : 1848,
            "byteOffset" : 382820
        },
        {
            "buffer" : 0,
            "byteLength" : 1884,
            "byteOffset" : 384668
        },
        {
            "buffer" : 0,
            "byteLength" : 1884,
            "byteOffset" : 386552
        },
        {
            "buffer" : 0,
            "byteLength" : 1710,
            "byteOffset" : 388436
        },
        {
            "buffer" : 0,
            "byteLength" : 2184,
            "byteOffset" : 390148
        },
        {
            "buffer" : 0,
            "byteLength" : 2184,
            "byteOffset" : 392332
        },
        {
            "buffer" : 0,
            "byteLength" : 2912,
            "byteOffset" : 394516
        },
        {
            "buffer" : 0,
            "byteLength" : 1944,
            "byteOffset" : 397428
        },
        {
            "buffer" : 0,
            "byteLength" : 13224,
            "byteOffset" : 399372
        },
        {
            "buffer" : 0,
            "byteLength" : 13224,
            "byteOffset" : 412596
        },
        {
            "buffer" : 0,
            "byteLength" : 17632,
            "byteOffset" : 425820
        },
        {
            "buffer" : 0,
            "byteLength" : 7368,
            "byteOffset" : 443452
        }
    ],
    "buffers" : [
        {
            "byteLength" : 450820,
            "uri" : "data:application/octet-stream;base64,"
        }
    ]
}
